Havn't seen it uploaded here so...

General
Complete name                           Extreme Porn -Lyen Parker And NestyTeac(HD)-xcell0EXP.mp4
Format                                   : MPEG-4
Format profile                           : Base Media / Version 2
Codec ID                                 : mp42
File size                                : 1.05 GiB
Duration                                 : 24mn 13s
Overall bit rate mode                    : Variable
Overall bit rate                         : 6 199 Kbps
Encoded date                             : UTC 2013-05-18 02:31:31
Tagged date                              : UTC 2013-05-18 02:31:31

Video
ID                                       : 1
Format                                   : AVC
Format/Info                              : Advanced Video Codec
Format profile                           : High@L4.2
Format settings, CABAC                   : Yes
Format settings, ReFrames                : 3 frames
Codec ID                                 : avc1
Codec ID/Info                            : Advanced Video Coding
Duration                                 : 24mn 13s
Bit rate mode                            : Variable
Bit rate                                 : 6 002 Kbps
Width                                    : 1 920 pixels
Height                                   : 1 080 pixels
Display aspect ratio                     : 16:9
Frame rate mode                          : Constant
Frame rate                               : 50.000 fps
Standard                                 : PAL
Color space                              : YUV
Chroma subsampling                       : 4:2:0
Bit depth                                : 8 bits
Scan type                                : Progressive
Bits/(Pixel*Frame)                       : 0.058
Stream size                              : 1.02 GiB (97%)
Language                                 : English
Encoded date                             : UTC 2013-05-18 02:31:31
Tagged date                              : UTC 2013-05-18 02:31:31
Color primaries                          : BT.709-5, BT.1361, IEC 61966-2-4, SMPTE RP177
Transfer characteristics                 : BT.709-5, BT.1361
Matrix coefficients                      : BT.709-5, BT.1361, IEC 61966-2-4 709, SMPTE RP177

Audio
ID                                       : 2
Format                                   : AAC
Format/Info                              : Advanced Audio Codec
Format profile                           : LC
Codec ID                                 : 40
Duration                                 : 24mn 13s
Bit rate mode                            : Variable
Bit rate                                 : 192 Kbps
Maximum bit rate                         : 229 Kbps
Channel(s)                               : 2 channels
Channel positions                        : Front: L R
Sampling rate                            : 48.0 KHz
Compression mode                         : Lossy
Stream size                              : 32.8 MiB (3%)
Language                                 : English
Encoded date                             : UTC 2013-05-18 02:31:31
Tagged date                              : UTC 2013-05-18 02:31:31
